<?xml version="1.0" encoding="UTF-8"?>
<svg width="119px" height="148px" viewBox="0 0 119 148" version="1.1" xmlns="http://www.w3.org/2000/svg" xmlns:xlink="http://www.w3.org/1999/xlink">
    <!-- Generator: Sketch 63.1 (92452) - https://sketch.com -->
    <title>Logo / Baseline / Red</title>
    <desc>Created with Sketch.</desc>
    <defs>
        <polygon id="path-1" points="0.1921 0.16932 4.4735 0.16932 4.4735 5 0.1921 5"></polygon>
        <polygon id="path-3" points="0.189948682 0.08262 6.844 0.08262 6.844 5.95535479 0.189948682 5.95535479"></polygon>
    </defs>
    <g id="Symbols" stroke="none" stroke-width="1" fill="none" fill-rule="evenodd">
        <g id="Menu" transform="translate(-47.000000, -30.000000)">
            <g id="Logo-/-Baseline-/-Red" transform="translate(47.000000, 30.000000)">
                <g id="Group-95">
                    <g id="Group-87" transform="translate(0.000000, 0.144200)">
                        <path d="M117.41708,90.86672 L115.32128,90.73372 C115.39628,89.55092 115.43428,88.34592 115.43428,87.15272 L115.43428,60.61472 C115.43428,54.49112 114.44868,48.47352 112.50468,42.72912 L114.49388,42.05572 C116.51128,48.01772 117.53428,54.26172 117.53428,60.61472 L117.53428,87.15272 C117.53428,88.39032 117.49468,89.63972 117.41708,90.86672" id="Fill-1" fill="#F46277"></path>
                        <path d="M1.87958,90.1293 C1.82958,89.1423 1.80438,88.1407 1.80438,87.1527 L1.80438,60.6147 C1.80438,54.2617 2.82738,48.0177 4.84478,42.0557 L6.83398,42.7291 C4.88978,48.4735 3.90438,54.4911 3.90438,60.6147 L3.90438,87.1527 C3.90438,88.1055 3.92858,89.0713 3.97658,90.0233 L1.87958,90.1293 Z" id="Fill-3" fill="#F46277"></path>
                        <polygon id="Fill-5" fill="#F46277" points="7.50966 21.87198 17.43406 34.95718 17.62846 35.21318 16.67726 36.85858 15.78186 36.75078 6e-05 34.86218 1.07726 32.99898 14.12046 34.56038 6.20646 24.12618"></polygon>
                        <path d="M22.13554,18.92414 C21.35654,18.18054 18.85314,19.71754 17.86254,20.75514 C16.87214,21.79294 15.24234,24.20514 16.21114,25.12974 L22.13554,18.92414 Z M23.27254,17.73354 C23.52194,17.88994 23.76094,18.06874 23.98714,18.26914 L24.61294,18.86674 L17.51454,26.30234 C17.51834,26.32454 17.52654,26.35674 17.54654,26.38954 C17.78474,26.77814 19.39474,26.61174 19.70534,26.51374 C21.76854,25.86334 23.08074,24.24154 23.23294,24.04874 C24.11454,22.93194 24.51454,21.78534 24.70614,20.98254 L25.77394,19.97534 C26.48134,22.42094 25.85414,25.02794 24.11754,26.72594 C21.78514,29.00694 18.54194,28.58334 17.93974,28.39354 C17.36254,28.21074 16.81354,27.93354 16.31434,27.55914 C16.13914,27.42894 15.97154,27.28714 15.81034,27.13374 C13.52234,24.94934 13.53154,21.22574 15.83134,18.81634 C17.85994,16.69174 20.99174,16.29854 23.27234,17.73354 L23.27254,17.73354 Z" id="Fill-7" fill="#F46277"></path>
                        <path d="M35.054,9.91358 L38.6006,15.62298 L36.8774,16.69338 L33.9088,11.91458 C33.5746,11.37658 33.1016,10.92658 32.5222,10.67118 C32.344,10.59218 32.1478,10.52638 31.9342,10.48198 C30.5772,10.20078 29.4566,10.99398 28.7646,11.48438 C27.5548,12.34118 26.9388,13.45098 26.6428,14.12178 L30.6454,20.56478 L28.9234,21.63458 L23.0998,12.25958 L24.6688,11.28458 L25.4756,12.24278 C25.5906,11.80378 26.1398,10.25578 27.7896,9.11018 C29.3874,8.00098 31.1712,8.00638 31.6902,8.03338 C31.6996,8.03338 31.7086,8.03398 31.7176,8.03438 C33.0594,8.10998 34.3558,8.78918 35.054,9.91358" id="Fill-9" fill="#F46277"></path>
                        <path d="M45.67882,12.79464 C45.50822,13.01964 45.03162,13.39104 44.67502,13.65544 C44.16162,14.03564 43.65882,14.21324 43.32842,14.29984 L43.32362,14.30164 C43.32182,14.30224 43.31982,14.30104 43.31842,14.30164 C42.17602,14.59224 41.00882,13.96124 40.60082,12.83044 L38.42442,6.80104 L36.52862,7.48544 L35.66242,5.08724 L37.54902,4.37644 L36.33902,1.02424 L38.26502,0.32884 C38.38422,0.65404 39.00642,2.37204 39.47882,3.67984 L42.35562,2.64084 L43.23102,5.06544 L40.35702,6.10324 C41.16742,8.34324 42.12422,10.99004 42.79222,12.83984 L43.21582,14.01344 C43.49322,14.74284 43.85002,11.62224 44.01102,10.85804 L44.77322,10.28684 L45.67882,12.79524 L45.67882,12.79464 Z" id="Fill-11" fill="#F46277"></path>
                        <path d="M46.5583,8.263 L45.6443,1.605 L47.6543,1.329 L48.4193,6.9018 C48.5053,7.53 48.7541,8.133 49.1791,8.6022 C49.3101,8.747 49.4623,8.887 49.6395,9.0142 C50.7641,9.824 52.1107,9.5556 52.9421,9.3898 C54.3955,9.1004 55.4101,8.3374 55.9539,7.8452 L54.9225,0.3312 L56.9303,0.0558 L58.3587,10.4638 L56.6009,11.2402 L56.2547,10.0366 C55.9707,10.3906 54.8387,11.58 52.8657,11.955 C50.9549,12.3172 49.3275,11.5858 48.8645,11.3504 C48.8567,11.3462 48.8485,11.3422 48.8405,11.338 C47.6455,10.7222 46.7381,9.5744 46.5583,8.263" id="Fill-13" fill="#F46277"></path>
                        <path d="M66.68116,0.405 C67.08756,0.4174 67.66556,0.4754 68.33256,0.6868 L68.12316,3.4578 C67.52776,3.2814 66.76796,2.9772 66.31036,2.9426 C65.31836,2.8676 63.77716,3.2942 62.79776,3.7736 L62.22656,11.338 L60.20516,11.185 L61.03616,0.18 L62.87836,0.3188 L62.96456,1.568 C63.14036,1.4252 63.56776,1.1222 64.20176,0.8608 C64.57296,0.7086 65.47916,0.3698 66.68136,0.4056 L66.68116,0.405 Z" id="Fill-15" fill="#F46277"></path>
                        <path d="M79.6875,8.19268 C79.9937,7.16028 77.4841,5.63388 76.1089,5.22548 C74.7337,4.81768 71.8441,4.46788 71.4629,5.75168 L79.6875,8.19268 Z M81.2655,8.66148 C81.2403,8.95448 81.1901,9.24848 81.1145,9.54148 L80.8685,10.37068 L71.0141,7.44568 C70.9963,7.45968 70.9713,7.48128 70.9515,7.51408 C70.7141,7.90328 71.5969,9.26028 71.8253,9.49168 C73.3451,11.03088 75.3867,11.45868 75.6281,11.50668 C77.0239,11.78148 78.2265,11.61448 79.0283,11.41888 L80.4117,11.90988 C78.5579,13.65488 75.9525,14.28528 73.6489,13.51468 C70.5557,12.48008 69.4529,9.40088 69.3475,8.77808 C69.2467,8.18148 69.2429,7.56628 69.3483,6.95108 C69.3843,6.73608 69.4339,6.52208 69.4971,6.30888 C70.3971,3.27668 73.7153,1.58628 76.9079,2.53428 C79.7239,3.36988 81.5021,5.97728 81.2655,8.66088 L81.2655,8.66148 Z" id="Fill-17" fill="#F46277"></path>
                        <polygon id="Fill-19" fill="#F46277" points="90.22002 18.97922 89.10202 20.90922 80.43602 15.88962 88.17402 2.53082 89.80902 3.47762 83.18882 14.90642"></polygon>
                        <path d="M99.23966,23.78858 C97.90786,21.30418 94.97966,18.90078 93.21686,19.48958 C93.07206,19.54178 92.74886,19.65418 92.58606,19.95018 C92.13906,20.76918 93.39226,22.13098 93.46666,22.21298 C94.18326,22.98058 95.22826,23.69838 96.39866,23.96778 C97.33926,24.18418 98.18026,24.07218 98.77346,23.92458 C98.95426,23.88058 99.10806,23.83258 99.23966,23.78858 L99.23966,23.78858 Z M100.77226,27.95278 L101.61586,28.39278 L99.74586,30.29298 C99.46826,30.23738 98.93166,29.96738 98.53686,29.76038 C97.97346,29.46338 97.59526,29.08658 97.37406,28.82478 L97.36966,28.82058 C97.18246,28.59618 96.76706,28.07638 96.68466,27.82278 C96.55866,27.45478 96.53786,27.06158 96.61046,26.68138 C96.52126,26.65098 96.43146,26.62038 96.34186,26.58518 C94.64326,25.97358 93.10666,24.95818 92.06246,23.46518 C91.23086,22.27858 90.53846,20.71118 90.93366,19.23758 C91.28726,17.93618 92.46906,17.37078 93.72986,17.42758 C95.05286,17.48858 96.32906,18.08798 97.40306,18.83038 C99.27246,20.11998 100.12906,21.60998 100.32886,21.99278 C100.43326,22.18838 100.50826,22.35118 100.55806,22.46258 C100.69726,22.07418 100.88966,21.71678 100.93446,21.30078 C100.97586,20.91758 100.92666,20.52658 100.81326,20.15938 C100.68846,19.75558 100.49026,19.37758 100.26186,19.02318 C99.42626,17.72698 97.93546,16.68818 96.35506,16.64778 C96.03866,16.64018 95.78166,16.67698 95.63126,16.70458 L94.52806,15.53738 C94.73026,15.43438 94.96026,15.33178 95.21746,15.23978 C95.71106,15.06338 96.16406,14.97718 96.53706,14.93498 C96.53706,14.93498 98.50586,14.71818 100.24826,15.76298 C100.67486,16.01838 101.07986,16.32838 101.45366,16.69578 C102.58926,17.81318 103.48746,19.55158 103.22366,21.18238 C103.12886,21.77058 102.89326,22.32658 102.62746,22.85938 C102.25026,23.61698 101.79386,24.27958 101.22726,24.90598 C100.85106,25.32138 100.45686,25.72038 100.06226,26.11818 C99.23886,26.94738 98.38046,27.74538 97.57766,28.59498 C97.03946,29.15978 100.01406,28.13738 100.77226,27.95218 L100.77226,27.95278 Z" id="Fill-21" fill="#F46277"></path>
                        <path d="M109.26562,36.8087 C110.66962,35.9955 111.00762,33.9557 109.78442,31.8435 C109.25862,30.9359 108.58542,30.2591 107.87642,29.8483 C107.51962,29.6403 107.15602,29.5003 106.79562,29.4335 L104.09802,30.9963 C103.97842,31.3361 103.91802,31.7175 103.919202,32.1235 C103.92002,32.9467 104.17182,33.8737 104.70142,34.7879 C105.92462,36.9001 107.86142,37.6219 109.26562,36.8087 M110.14022,38.3187 C107.24882,39.9939 103.70502,39.0047 102.25082,36.1519 C101.65422,34.9817 101.48462,33.6371 101.72022,32.3685 L101.61362,32.4119 L100.58462,32.8231 L99.65862,31.2241 L112.31742,23.8917 L113.33262,25.6471 L109.17302,28.0565 C110.38982,28.4843 111.46902,29.2999 112.18542,30.3967 C113.93322,33.0751 113.03182,36.6441 110.14022,38.3187" id="Fill-23" fill="#F46277"></path>
                        <polygon id="Fill-25" fill="#F46277" points="3.53856 99.93082 6.79716 96.80482 7.03856 97.83002 4.53296 100.18662 7.82916 101.18562 8.07096 102.21062 3.75936 100.86822 1.41136 101.42182 1.19036 100.48422"></polygon>
                        <path d="M3.4183,105.93784 C3.6579,106.65504 4.3555,107.12404 5.4483,106.75904 C6.5411,106.39404 6.8167,105.59984 6.5771,104.88264 C6.3375,104.16544 5.6429,103.70484 4.5501,104.06984 C3.4573,104.43484 3.1787,105.22064 3.4183,105.93784 M4.2763,103.25024 C5.8641,102.71984 6.9349,103.53904 7.3027,104.64024 C7.6733,105.75004 7.3101,107.04824 5.7221,107.57884 C4.1341,108.10904 3.0633,107.29024 2.6927,106.18004 C2.3247,105.07884 2.6883,103.78064 4.2763,103.25024" id="Fill-27" fill="#F46277"></path>
                        <path d="M5.5079,111.30942 C5.8097,111.98262 6.4383,112.26302 7.2019,111.92082 L9.6737,110.81322 L10.0455,111.64262 L5.7753,113.55622 L5.4035,112.72682 L6.2577,112.34422 L6.2465,112.31922 C5.8931,112.38902 5.0933,112.25462 4.6663,111.30182 C4.2909,110.46422 4.4735,109.57362 5.6807,109.03282 L8.3417,107.84002 L8.7135,108.66942 L6.2413,109.77742 C5.4775,110.11962 5.2059,110.63582 5.5079,111.30942" id="Fill-29" fill="#F46277"></path>
                        <path d="M7.83686,114.89742 L10.26606,113.56202 L9.89766,112.89182 L10.52866,112.54482 L10.89726,113.21522 L11.93026,112.64742 L12.36826,113.44402 L11.33486,114.01182 L11.78146,114.82422 L11.15026,115.17102 L10.70386,114.35862 L8.40866,115.62022 C8.00686,115.84142 7.89906,116.07522 8.14146,116.51662 C8.19366,116.61122 8.23266,116.68242 8.31786,116.80002 L7.71846,117.12922 C7.59666,117.00122 7.47746,116.84062 7.37346,116.65142 C6.99626,115.96522 7.03246,115.33942 7.83686,114.89742" id="Fill-31" fill="#F46277"></path>
                        <path d="M12.9562,117.97828 C12.5502,117.36248 11.8846,117.18688 11.186,117.64748 L8.925,119.13848 L8.4246,118.37968 L13.6828,114.91268 L14.1832,115.67108 L12.0498,117.07808 L12.0646,117.10048 C12.4022,116.97488 13.2134,116.97888 13.7876,117.85028 C14.293,118.61668 14.2558,119.52488 13.152,120.25288 L10.718,121.85748 L10.2176,121.09908 L12.4786,119.60808 C13.177,119.14748 13.3622,118.59448 12.9562,117.97828" id="Fill-33" fill="#F46277"></path>
                        <polygon id="Fill-35" fill="#F46277" points="18.13618 121.1977 20.84818 124.2657 20.23438 124.8083 18.14238 122.4413 16.72638 123.6929 18.63978 125.8573 18.08018 126.3521 16.16678 124.1877 14.64958 125.5287 16.80118 127.9629 16.18758 128.5053 13.41618 125.3699"></polygon>
                        <path d="M21.5806,128.1519 C21.041,127.6489 20.353,127.6351 19.7824,128.2471 L17.936,130.2285 L17.2714,129.6091 L20.4608,126.1861 L21.126,126.8055 L20.4878,127.4901 L20.5078,127.5085 C20.806,127.3069 21.5952,127.1201 22.3588,127.8317 C23.0302,128.4571 23.2084,129.3487 22.3066,130.3163 L20.319,132.4491 L19.654,131.8295 L21.5004,129.8481 C22.071,129.2359 22.1206,128.6549 21.5806,128.1519" id="Fill-37" fill="#F46277"></path>
                        <path d="M22.65902,132.82036 L24.38322,130.65056 L23.78422,130.17476 L24.23262,129.61116 L24.83142,130.08696 L25.56442,129.16416 L26.27622,129.72956 L25.54262,130.65236 L26.26842,131.22916 L25.82042,131.79256 L25.09502,131.21616 L23.46562,133.26616 C23.18022,133.62536 23.17122,133.88276 23.56582,134.19616 C23.65022,134.26316 23.71362,134.31356 23.83762,134.38916 L23.41222,134.92476 C23.25022,134.85356 23.07822,134.75156 22.90942,134.61716 C22.29662,134.12996 22.08802,133.53896 22.65902,132.82036" id="Fill-39" fill="#F46277"></path>
                        <path d="M27.19798,131.9189 L27.94478,132.4371 L27.32898,133.3243 L27.35118,133.3397 C27.77518,132.9657 28.47058,132.7365 29.17318,133.2241 C29.26918,133.2909 29.36778,133.3699 29.43558,133.4611 L28.99978,134.0895 C28.91358,134.0081 28.83038,133.9393 28.73438,133.8725 C28.01718,133.3747 27.20558,133.5019 26.61058,134.3593 L25.27638,136.2815 L24.52958,135.7633 L27.19798,131.9189 Z" id="Fill-41" fill="#F46277"></path>
                        <path d="M32.02142,137.29018 C32.41842,136.57378 32.27562,135.90738 31.58402,135.50418 C30.93882,135.12798 30.27822,135.24298 29.75962,135.97158 L32.02142,137.29018 Z M28.79402,135.87718 C29.65942,134.39238 30.90822,134.28718 31.95002,134.89458 C32.99142,135.50198 33.42482,136.59818 32.60042,138.01298 C32.51862,138.15298 32.46562,138.22598 32.40002,138.30238 L29.40762,136.55778 C28.97562,137.44138 29.17662,138.07918 29.89942,138.50038 C30.39682,138.79038 30.88202,138.83378 31.32942,138.45938 L32.02902,138.86718 C31.26262,139.62838 30.35762,139.59058 29.53362,139.11018 C28.44542,138.47558 27.94642,137.33058 28.79402,135.87718 L28.79402,135.87718 Z" id="Fill-43" fill="#F46277"></path>
                        <path d="M35.11928,141.13686 C35.78188,141.44046 36.62168,141.25046 37.09768,140.21106 C37.57368,139.17166 37.16928,138.41186 36.50628,138.10846 C35.85148,137.80846 34.99568,137.99066 34.51928,139.03006 C34.04348,140.06966 34.46428,140.83686 35.11928,141.13686 L35.11928,141.13686 Z M34.70848,136.54226 L35.53528,136.92106 L35.22768,137.59186 C35.69528,137.24186 36.36668,137.20286 36.99668,137.49146 C37.94648,137.92626 38.59208,139.02426 37.88348,140.57106 C37.17848,142.10986 35.92168,142.34626 34.97228,141.91126 C34.34208,141.62266 33.93308,141.08846 33.89288,140.50586 L32.87348,142.73206 L32.04668,142.35346 L34.70848,136.54226 Z" id="Fill-45" fill="#F46277"></path>
                        <path d="M39.8976,138.81186 L40.753,139.11826 L40.3892,140.13526 L40.4144,140.14426 C40.7268,139.67286 41.339,139.27086 42.144,139.55926 C42.2542,139.59846 42.3696,139.64946 42.4594,139.71986 L42.2016,140.44026 C42.0972,140.38366 41.9988,140.33886 41.8886,140.29926 C41.0666,140.00486 40.3162,140.33846 39.9642,141.32146 L39.1752,143.52426 L38.319,143.21786 L39.8976,138.81186 Z" id="Fill-47" fill="#F46277"></path>
                        <path d="M45.95678,142.74468 C46.15358,141.94928 45.84258,141.34248 45.06918,141.13328 C44.34778,140.93788 43.73958,141.22088 43.42838,142.06008 L45.95678,142.74468 Z M42.47138,142.22028 C42.92078,140.56088 44.09938,140.13408 45.26358,140.44928 C46.42778,140.76448 47.13218,141.71048 46.70378,143.29188 C46.66158,143.44848 46.62938,143.53268 46.58598,143.62368 L43.24098,142.71768 C43.05398,143.68368 43.41438,144.24768 44.22238,144.46648 C44.77838,144.61708 45.25838,144.53228 45.59298,144.05428 L46.37518,144.26568 C45.83258,145.20088 44.94898,145.39988 44.02778,145.15028 C42.81138,144.82088 42.03138,143.84508 42.47138,142.22028 L42.47138,142.22028 Z" id="Fill-49" fill="#F46277"></path>
                        <path d="M50.37768,142.34478 C49.64988,142.22198 49.06748,142.58938 48.92868,143.41498 L48.47808,146.08658 L47.58168,145.93538 L48.35968,141.31998 L49.25628,141.47118 L49.10068,142.39438 L49.12728,142.39878 C49.26548,142.06578 49.82168,141.47518 50.85108,141.64878 C51.75648,141.80138 52.39628,142.44798 52.17588,143.75278 L51.69108,146.62858 L50.79448,146.47738 L51.24508,143.80558 C51.38428,142.98018 51.10568,142.46758 50.37768,142.34478" id="Fill-51" fill="#F46277"></path>
                        <path d="M56.89888,144.33082 C56.93848,143.51262 56.51588,142.97762 55.71708,142.92162 C54.97208,142.86922 54.43008,143.26382 54.28648,144.14682 L56.89888,144.33082 Z M53.37848,144.48902 C53.49888,142.77462 54.57308,142.12822 55.77588,142.21302 C56.97888,142.29762 57.85228,143.08982 57.73728,144.72362 C57.72588,144.88502 57.71068,144.97422 57.68588,145.07182 L54.22968,144.82862 C54.23248,145.81202 54.69488,146.29582 55.52948,146.35442 C56.10408,146.39482 56.55848,146.21922 56.79468,145.68542 L57.60228,145.74262 C57.25068,146.76422 56.42228,147.12982 55.47068,147.06302 C54.21388,146.97462 53.26048,146.16782 53.37848,144.48902 L53.37848,144.48902 Z" id="Fill-53" fill="#F46277"></path>
                        <g id="Group-57" transform="translate(58.800000, 142.200000)">
                            <mask id="mask-2" fill="white">
                                <use xlink:href="#path-1"></use>
                            </mask>
                            <g id="Clip-56"></g>
                            <path d="M2.2977,4.22612 C3.0353,4.20772 3.5367,3.73592 3.5155,2.89952 L3.4481,0.19192 L4.3569,0.16932 L4.4735,4.84692 L3.5647,4.86952 L3.5417,3.93412 L3.5143,3.93452 C3.4423,4.28732 3.0093,4.97312 1.9661,4.99932 C1.0485,5.02212 0.2977,4.50992 0.2647,3.18752 L0.1921,0.27332 L1.1007,0.25052 L1.1681,2.95812 C1.1889,3.79452 1.5603,4.24432 2.2977,4.22612" id="Fill-55" fill="#F46277" mask="url(#mask-2)"></path>
                        </g>
                        <path d="M64.4894,142.24312 L65.3932,142.14552 L65.509,143.21952 L65.5358,143.21672 C65.6114,142.65612 65.987,142.02712 66.8372,141.93552 C66.9536,141.92292 67.0798,141.91812 67.1912,141.94252 L67.2732,142.70312 C67.1548,142.69772 67.0464,142.70052 66.9302,142.71312 C66.062,142.80672 65.5324,143.43432 65.6442,144.47232 L65.8956,146.79912 L64.9916,146.89672 L64.4894,142.24312 Z" id="Fill-58" fill="#F46277"></path>
                        <path d="M68.43628,145.10426 L69.24128,144.95566 C69.41708,145.50886 69.94128,145.62246 70.50748,145.51786 C71.07388,145.41326 71.47848,145.12826 71.38708,144.63266 C71.31848,144.26106 71.03408,144.15806 70.58248,144.14066 L69.68848,144.10466 C68.78368,144.06126 68.31268,143.69066 68.19808,143.07126 C68.04288,142.23046 68.67308,141.62926 69.74348,141.43166 C70.84088,141.22886 71.59588,141.60186 71.81508,142.54046 L71.06308,142.67926 C70.87868,142.12766 70.45508,142.01406 69.88008,142.12006 C69.27828,142.23106 68.98828,142.49506 69.06208,142.89346 C69.12068,143.21206 69.36028,143.36906 69.85768,143.38686 L70.76068,143.42146 C71.53668,143.46126 72.14988,143.65906 72.29528,144.44646 C72.48328,145.46426 71.63488,146.02366 70.62588,146.20986 C69.51988,146.41406 68.64748,146.09946 68.43628,145.10426" id="Fill-60" fill="#F46277"></path>
                        <path d="M74.9806,140.99302 C74.2704,141.19342 73.9014,141.77442 74.1286,142.58002 L74.8646,145.18682 L73.9898,145.43382 L72.2786,139.37122 L73.153,139.12422 L73.8474,141.58402 L73.8734,141.57662 C73.8562,141.21682 74.1058,140.44522 75.1104,140.16162 C75.9936,139.91222 76.8482,140.22282 77.2078,141.49582 L77.9996,144.30202 L77.1248,144.54882 L76.3892,141.94202 C76.1618,141.13662 75.6908,140.79262 74.9806,140.99302" id="Fill-62" fill="#F46277"></path>
                        <path d="M77.99204,139.33042 L78.84724,139.02222 L80.43504,143.42582 L79.57964,143.73402 L77.99204,139.33042 Z M77.77444,137.39942 C78.04504,137.30162 78.36504,137.44482 78.46584,137.72442 C78.56944,138.01242 78.41164,138.31802 78.14064,138.41542 C77.86964,138.51342 77.55324,138.37862 77.44924,138.09062 C77.34844,137.81102 77.50304,137.49702 77.77444,137.39942 L77.77444,137.39942 Z" id="Fill-64" fill="#F46277"></path>
                        <path d="M83.83882,141.30796 C84.50502,141.01176 84.91802,140.25656 84.45342,139.21176 C83.98902,138.16736 83.15182,137.96816 82.48522,138.26436 C81.82722,138.55696 81.39782,139.31936 81.86242,140.36396 C82.32702,141.40876 83.18082,141.60056 83.83882,141.30796 L83.83882,141.30796 Z M80.12162,138.57636 L80.95242,138.20696 L81.25242,138.88156 C81.29902,138.29916 81.71382,137.77016 82.34722,137.48816 C83.30142,137.06396 84.55182,137.30596 85.24322,138.86076 C85.93082,140.40736 85.27662,141.50596 84.32222,141.93016 C83.68882,142.21216 83.01802,142.16556 82.55442,141.81016 L83.54942,144.04756 L82.71842,144.41696 L80.12162,138.57636 Z" id="Fill-66" fill="#F46277"></path>
                        <path d="M87.91108,132.63228 L88.39628,132.33908 L88.76388,132.94728 L88.47128,133.12408 C88.07108,133.36608 88.02708,133.62408 88.26448,134.01688 L88.46948,134.35548 L89.28548,133.86208 L89.65308,134.47028 L88.83708,134.96368 L90.89008,138.35928 L90.11248,138.82948 L88.05928,135.43388 L87.50508,135.76908 L87.13728,135.16088 L87.69168,134.82568 L87.42188,134.37928 C86.94668,133.59388 87.24888,133.03248 87.91108,132.63228" id="Fill-68" fill="#F46277"></path>
                        <path d="M94.06284,135.45298 C94.67844,135.01378 94.92264,134.20938 94.25364,133.27118 C93.58444,132.33318 92.74424,132.30238 92.12864,132.74118 C91.51284,133.18038 91.27584,133.97998 91.94504,134.91798 C92.61404,135.85618 93.44704,135.89218 94.06284,135.45298 M91.24164,135.41978 C90.26884,134.05678 90.73884,132.79278 91.68424,132.11838 C92.63704,131.43878 93.98484,131.40618 94.95704,132.76938 C95.92964,134.13258 95.45964,135.39638 94.50704,136.07618 C93.56184,136.75018 92.21364,136.78298 91.24164,135.41978" id="Fill-70" fill="#F46277"></path>
                        <path d="M94.4434,130.15084 L95.1374,129.56364 L95.835,130.38824 L95.8558,130.37084 C95.6042,129.86424 95.5628,129.13304 96.2156,128.58084 C96.305,128.50524 96.4072,128.43044 96.5126,128.38824 L97.0068,128.97224 C96.9058,129.03404 96.8176,129.09704 96.7282,129.17264 C96.0618,129.73664 95.9748,130.55304 96.6492,131.35024 L98.1602,133.13684 L97.4666,133.72384 L94.4434,130.15084 Z" id="Fill-72" fill="#F46277"></path>
                        <path d="M100.0353,127.22144 C98.4867,125.82044 98.4181,124.19264 99.5771,122.91124 C100.4527,121.94364 101.6223,121.63004 102.7641,122.42064 L102.1481,123.10104 C101.4081,122.69864 100.7033,122.87404 100.1599,123.47464 C99.3509,124.36904 99.5477,125.50604 100.6693,126.52064 C101.7905,127.53484 102.9421,127.63004 103.7571,126.72924 C104.3007,126.12844 104.4049,125.40964 103.9235,124.70724 L104.5393,124.02664 C105.4465,125.08984 105.2517,126.28484 104.3701,127.25924 C103.2169,128.53384 101.5903,128.62824 100.0353,127.22144" id="Fill-74" fill="#F46277"></path>
                        <path d="M104.98236,119.9983 C104.54796,120.5947 104.61696,121.2795 105.29356,121.7719 L107.48316,123.3663 L106.94816,124.1011 L101.85636,120.3935 L102.39136,119.6587 L104.45716,121.1629 L104.47296,121.1411 C104.23696,120.8693 103.95616,120.1081 104.57036,119.2645 C105.11076,118.5227 105.97436,118.2385 107.04336,119.0171 L109.40036,120.7331 L108.86536,121.4679 L106.67576,119.8735 C105.99956,119.3811 105.41656,119.4019 104.98236,119.9983" id="Fill-76" fill="#F46277"></path>
                        <path d="M110.62642,117.58716 C111.12942,116.73436 110.83062,116.03556 110.39642,115.77956 L109.95462,115.51876 C110.00802,115.62336 110.00262,115.75616 109.81582,116.17916 L109.46862,116.99856 C109.23342,117.53916 109.30182,117.83036 109.62002,118.01776 C109.99982,118.24196 110.33842,118.07576 110.62642,117.58716 M109.19682,118.82416 C108.42122,118.36676 108.43702,117.61296 108.77722,116.84156 L109.25082,115.77276 C109.42382,115.37296 109.42722,115.20776 109.30302,115.13476 L109.19462,115.07056 C108.55082,114.69116 108.18362,114.92376 107.85002,115.49016 C107.50682,116.07156 107.48542,116.49796 107.99702,116.79956 L108.09022,116.85436 L107.64662,117.60676 L107.48382,117.51076 C106.67742,117.03516 106.60782,116.23136 107.26202,115.12236 C107.93422,113.98256 108.67142,113.70656 109.64882,114.28276 L112.35502,115.87876 L111.92042,116.61536 L111.26922,116.23136 L111.25082,116.26236 C111.36022,116.43136 111.71002,117.14976 111.12482,118.14236 C110.68122,118.89436 109.99562,119.29496 109.19682,118.82416" id="Fill-78" fill="#F46277"></path>
                        <path d="M110.47524,110.64262 C110.16404,111.31202 110.36424,111.97102 111.12304,112.32362 L113.57984,113.46602 L113.19664,114.29042 L108.95244,112.31702 L109.33584,111.49262 L110.18424,111.88742 L110.19604,111.86282 C109.91184,111.64142 109.48944,110.94882 109.92944,110.00182 C110.31684,109.16922 111.10944,108.72402 112.30904,109.28182 L114.95364,110.51142 L114.57044,111.33582 L112.11344,110.19342 C111.35444,109.84042 110.78664,109.97342 110.47524,110.64262" id="Fill-80" fill="#F46277"></path>
                        <g id="Group-84" transform="translate(111.400000, 103.200000)">
                            <mask id="mask-4" fill="white">
                                <use xlink:href="#path-3"></use>
                            </mask>
                            <g id="Clip-83"></g>
                            <path d="M4.07154,3.46822 C4.30774,2.78822 4.05314,1.98522 3.04174,1.63402 C2.02994,1.28262 1.34114,1.75782 1.10474,2.43782 C0.86554,3.12642 1.11454,3.91802 2.12614,4.26922 C3.13794,4.62042 3.83214,4.15662 4.07154,3.46822 M4.54234,5.87022 L4.80494,5.11382 C5.31554,5.26262 5.75934,4.80702 5.97494,4.18662 C6.22874,3.45562 6.08694,2.73922 5.23694,2.44402 L4.49714,2.18742 L4.49134,2.20442 C4.85614,2.63562 4.93014,3.29982 4.71454,3.92022 C4.37834,4.88942 3.40974,5.62002 1.84594,5.07662 C0.28174,4.53342 -0.02206,3.35142 0.31134,2.39102 C0.52694,1.77022 0.99674,1.29522 1.55034,1.18282 L1.55614,1.16582 L0.91014,0.94142 L1.20834,0.08262 L5.53514,1.58562 C7.05654,2.11402 6.97434,3.47622 6.65234,4.40282 C6.34814,5.27842 5.66734,6.25162 4.54234,5.87022" id="Fill-82" fill="#F46277" mask="url(#mask-4)"></path>
                        </g>
                        <path d="M115.62242,99.29126 C114.82202,99.11746 114.22462,99.44626 114.03742,100.22526 C113.86342,100.95186 114.16342,101.55146 115.01122,101.83826 L115.62242,99.29126 Z M115.19902,102.79046 C113.52742,102.38946 113.06662,101.22346 113.34842,100.05066 C113.62962,98.87786 114.55542,98.14626 116.14802,98.52886 C116.30562,98.56666 116.39122,98.59626 116.48322,98.63706 L115.67422,102.00686 C116.64522,102.16586 117.19822,101.78946 117.39362,100.97546 C117.52822,100.41546 117.42982,99.93806 116.94202,99.61726 L117.13122,98.82946 C118.08162,99.34466 118.30582,100.22226 118.08302,101.15006 C117.78902,102.37566 116.83582,103.18326 115.19902,102.79046 L115.19902,102.79046 Z" id="Fill-85" fill="#F46277"></path>
                    </g>
                    <text id="-" font-family="MyriadPro-Regular, Myriad Pro" font-size="3.6" font-weight="normal"></text>
                    <g id="Group-94" transform="translate(34.600000, 46.544200)" fill="#F46277">
                        <path d="M2.80984,12.9231 C2.95104,12.1519 3.10624,11.3163 3.27064,10.4423 C3.47764,10.4855 3.67724,10.5059 3.83024,10.5009 C4.21184,10.4885 4.51904,10.3173 4.52364,9.8417 C4.52764,9.4337 4.10844,8.6615 3.65964,8.3911 C3.87044,7.2881 4.08644,6.1685 4.29824,5.0807 C4.36284,5.0915 4.42684,5.0935 4.48884,5.0825 C4.61924,5.0593 4.74264,4.9949 4.85484,4.9193 C5.53064,4.4643 5.54364,3.9101 5.04604,3.3005 C4.94384,3.1753 4.81784,3.1195 4.68464,3.1043 C4.72984,2.8753 4.77364,2.6525 4.81744,2.4305 C6.73404,2.8211 8.50744,3.7953 9.87884,5.2359 L11.39924,6.8329 C11.11084,7.0655 10.75404,7.3579 10.31024,7.7291 C10.38404,7.5723 10.42584,7.3971 10.42324,7.2235 C10.41264,6.4791 9.53364,5.7963 8.91984,6.4377 C8.23224,7.1563 8.38204,8.1971 9.51504,8.2551 C9.52124,8.2555 9.52724,8.2557 9.53344,8.2559 C9.59304,8.2579 9.64944,8.2507 9.70404,8.2403 C9.21124,8.6579 8.63884,9.1493 7.97084,9.7301 C8.01064,9.6647 8.04384,9.5977 8.06204,9.5287 C8.21204,8.9601 7.40184,8.5791 6.95304,8.5331 C6.92784,8.5305 6.90324,8.5291 6.87944,8.5291 C6.22624,8.5227 6.03584,9.3691 6.19684,9.8949 C6.36424,10.4423 6.94924,10.4449 7.42364,10.2071 C6.92324,10.6449 6.37504,11.1277 5.77664,11.6585 C5.73504,11.5355 5.67544,11.4079 5.60684,11.2719 C5.48744,11.0359 5.34384,10.9733 5.07864,10.9541 C4.77664,10.9319 4.40544,10.9883 4.13024,11.1197 C3.70004,11.3249 3.82884,11.7897 3.96424,12.1565 C4.06264,12.4235 4.22764,12.6599 4.43244,12.8561 C4.21004,13.0551 3.98164,13.2597 3.74744,13.4703 C3.61544,13.2405 3.35264,13.0503 3.13684,12.9579 C3.02544,12.9103 2.91584,12.9053 2.80984,12.9231 L2.80984,12.9231 Z M5.12004,15.0625 C5.58744,14.6425 6.02844,14.2481 6.44824,13.8737 C6.46504,14.0609 6.52404,14.2293 6.64364,14.3247 C6.70564,14.3739 6.78544,14.3941 6.86324,14.4097 C6.94644,14.4261 7.03704,14.4389 7.13104,14.4469 L5.12004,15.0625 Z M7.57664,12.8713 C8.01844,12.4807 8.43084,12.1177 8.81364,11.7829 C8.81384,11.7849 8.81284,11.7873 8.81324,11.7895 C8.82824,11.8929 8.87504,11.9907 8.96804,12.0761 C9.43544,12.5057 10.36204,12.4163 10.58444,11.7643 C10.72044,11.3647 10.51964,10.8283 10.15084,10.6213 C10.47604,10.3413 10.77284,10.0875 11.04344,9.8577 C11.10424,9.9919 11.21264,10.0811 11.27024,10.1255 C11.60044,10.3809 12.20744,10.4799 12.60984,10.1431 C12.66684,10.0955 12.96604,9.8327 12.93584,9.4613 C12.90384,9.0689 12.53104,8.8573 12.34044,8.7737 C12.53944,8.6107 12.70584,8.4765 12.85244,8.3593 L16.04904,11.7167 L14.76844,12.1089 C14.82224,11.8909 14.82504,11.6437 14.81584,11.4365 C14.80144,11.1031 14.68444,10.7847 14.35224,10.6529 C13.93404,10.4871 13.45584,10.4433 13.13204,10.8187 C12.81004,11.1927 12.94504,11.6113 13.13104,12.0107 C13.21544,12.1921 13.37604,12.3585 13.56644,12.4767 L12.11444,12.9213 C12.02724,12.8213 11.91564,12.7415 11.80184,12.7085 C11.35604,12.5799 10.63544,12.5681 10.44104,13.1127 C10.42844,13.1477 10.41964,13.1833 10.41404,13.2187 C10.40264,13.2899 10.40224,13.3657 10.40864,13.4435 L8.34764,14.0743 C8.44564,13.9171 8.46844,13.7049 8.36424,13.4195 C8.26944,13.1605 7.93064,12.9599 7.57664,12.8713 L7.57664,12.8713 Z M11.40144,3.7863 C10.97124,3.3347 10.50924,2.9207 10.01924,2.5461 C10.09404,2.5493 10.16924,2.5519 10.24524,2.5547 C14.42024,2.7133 20.13024,2.9303 26.20184,3.2955 C31.16644,4.6135 37.15264,21.4375 40.57904,34.4333 L11.40144,3.7863 Z M39.66204,41.7629 L42.31124,39.4533 L44.33504,42.5409 L41.60944,44.2787 L39.66204,41.7629 Z M48.72464,5.5957 L42.48064,33.4303 C40.37264,25.5579 35.59104,9.6083 30.03864,3.5441 C36.60544,4.0027 43.30504,4.6503 48.72464,5.5957 L48.72464,5.5957 Z M0.36164,18.0905 C0.41464,18.1413 0.47224,18.1871 0.53424,18.2269 C1.03764,18.5499 1.56364,18.3145 2.07784,18.1571 C2.45604,18.0413 15.70884,14.0195 16.20604,13.8673 C16.54824,13.7627 16.89024,13.6579 17.23244,13.5533 C17.37644,13.5091 17.52044,13.4651 17.67004,13.4193 L40.93944,37.8601 L38.09664,40.3389 C37.89464,40.5151 37.72244,40.7275 37.61384,40.9727 C37.28864,41.7063 37.46604,42.5109 37.98584,43.0313 L40.19684,45.8877 C36.89444,55.8977 27.64464,62.9011 17.15944,63.3273 C16.82004,62.9029 16.04824,61.7903 14.72584,59.4645 L14.50884,59.0827 L11.34604,58.2345 L11.51704,63.1463 C11.54344,63.8793 12.00084,64.5167 12.68184,64.7709 C12.80504,64.8175 12.94164,64.8643 13.08344,64.9101 C13.61064,65.0819 14.04944,65.1989 14.21584,65.2353 C14.83684,65.3725 15.48304,65.4443 16.13724,65.4497 C22.25164,65.4497 28.02084,63.4901 32.82904,59.7831 C37.22464,56.3943 40.54264,51.6551 42.25004,46.3635 L45.53124,44.2711 C46.09264,43.9925 46.47964,43.4435 46.54144,42.7939 C46.58224,42.3633 46.45024,41.9335 46.21304,41.5717 L43.67684,37.7027 L51.02464,4.9391 C51.11484,4.3975 50.77624,3.8769 50.24464,3.7399 L50.17604,3.7223 C38.47544,1.5235 20.15924,0.9173 10.32504,0.4545 C7.26544,0.3105 4.94364,0.1549 4.12244,0.15668453 C3.55084,0.1579 3.04164,0.5071 2.93944,1.0695 L2.88824,1.3517 C2.75584,2.0215 2.63484,2.6937 2.51024,3.3649 C2.26784,4.6697 2.02744,5.9749 1.78864,7.2803 C1.51284,8.7867 1.23924,10.2937 0.96924,11.8011 C0.74084,13.0769 0.51384,14.3527 0.29804,15.6307 C0.23664,15.9937 0.17604,16.3571 0.11944,16.7209 C0.03984,17.2311 -0.04956,17.6963 0.36164,18.0905 L0.36164,18.0905 Z" id="Fill-88"></path>
                        <path d="M7.37682,3.71878 C7.88822,3.67978 8.48922,4.43658 8.42942,4.93558 C8.41782,5.03318 8.37342,5.13178 8.28302,5.23018 C7.94862,5.59418 7.36442,5.81098 6.89422,5.59758 C6.64602,5.48518 6.45102,5.23158 6.32682,4.99538 C5.94222,4.26218 6.70742,3.76978 7.37682,3.71878" id="Fill-90"></path>
                        <path d="M4.53308,6.5346 C4.80868,6.1722 5.44008,5.8354 5.79508,6.2702 C6.29268,6.8798 6.27968,7.434 5.60388,7.889 C5.49148,7.9646 5.36828,8.029 5.23788,8.0522 C5.15968,8.0662 5.07908,8.0652 4.99708,8.043 C4.48988,7.9052 4.22748,6.937 4.53308,6.5346" id="Fill-92"></path>
                    </g>
                </g>
            </g>
        </g>
    </g>
</svg>